<svg width="16" height="16" viewBox="0 0 16 16" fill="none" xmlns="http://www.w3.org/2000/svg">
<path fill-rule="evenodd" clip-rule="evenodd" d="M8 16C12.4183 16 16 12.4183 16 8C16 3.58172 12.4183 0 8 0C3.58172 0 0 3.58172 0 8C0 12.4183 3.58172 16 8 16ZM6.47327 6.10687H4.39693V11.8473H6.47327V6.10687ZM4.39694 4.21374C4.39694 4.48908 4.49988 4.75314 4.68312 4.94784C4.86637 5.14253 5.11489 5.25191 5.37404 5.25191C5.63318 5.25191 5.88171 5.14253 6.06495 4.94784C6.24819 4.75314 6.35114 4.48908 6.35114 4.21374C6.35114 3.9384 6.24819 3.67434 6.06495 3.47964C5.88171 3.28495 5.63318 3.17557 5.37404 3.17557C5.11489 3.17557 4.86637 3.28495 4.68312 3.47964C4.49988 3.67434 4.39694 3.9384 4.39694 4.21374ZM12.3782 11.8473H11.1662C11.1126 11.8473 11.0612 11.8256 11.0234 11.7869C10.9855 11.7482 10.9642 11.6957 10.9642 11.641V8.54604C10.9642 8.27243 10.8578 8.01002 10.6684 7.81655C10.479 7.62308 10.2221 7.51439 9.95421 7.51439C9.68635 7.51439 9.42946 7.62308 9.24005 7.81655C9.05064 8.01002 8.94423 8.27243 8.94423 8.54604V11.641C8.94423 11.6957 8.92295 11.7482 8.88507 11.7869C8.84719 11.8256 8.79581 11.8473 8.74224 11.8473H7.53026C7.47668 11.8473 7.4253 11.8256 7.38742 11.7869C7.34954 11.7482 7.32826 11.6957 7.32826 11.641V6.27641C7.32826 6.22169 7.34954 6.16921 7.38742 6.13051C7.4253 6.09182 7.47668 6.07008 7.53026 6.07008H8.74224C8.79581 6.07008 8.84719 6.09182 8.88507 6.13051C8.92295 6.16921 8.94423 6.22169 8.94423 6.27641C8.94409 6.31097 8.95432 6.34474 8.97353 6.37319C8.99275 6.40163 9.02003 6.42338 9.05171 6.43552C9.08339 6.44765 9.11794 6.44959 9.15073 6.44106C9.18352 6.43254 9.21297 6.41396 9.23511 6.38783C9.40089 6.21394 9.6005 6.07746 9.82108 5.9872C10.0417 5.89693 10.2783 5.85488 10.5158 5.86375C11.7197 5.86375 12.5802 6.61892 12.5802 8.17465V11.641C12.5802 11.6957 12.5589 11.7482 12.521 11.7869C12.4831 11.8256 12.4317 11.8473 12.3782 11.8473Z" fill="#0CECB7"/>
</svg>
