<svg width="51" height="38" viewBox="0 0 51 38" fill="none" xmlns="http://www.w3.org/2000/svg">
<path d="M31.9968 35.2964C32.1047 35.6045 32.2925 35.8782 32.5408 36.0893C32.2979 35.8734 32.1112 35.6012 31.9968 35.2964ZM31.9968 35.2964C32.1047 35.6045 32.2925 35.8782 32.5408 36.0893C32.2979 35.8734 32.1112 35.6012 31.9968 35.2964ZM48.4996 21.3207C46.8326 19.5859 44.0251 18.4234 40.0947 17.895V17.8598C42.9109 16.988 44.9727 15.6935 46.2712 14.0466C47.5697 12.3998 48.2189 10.5506 48.2189 8.48982C48.2189 6.81661 47.7889 5.33713 46.9383 4.07784C46.087 2.80979 44.8178 1.82349 43.1307 1.11896C41.4458 0.41449 39.3753 0.0534058 36.945 0.0534058C36.7081 0.0534058 36.3923 0.0534058 35.9975 0.0622534V1.07498C38.3575 1.16304 40.2262 1.82352 41.3317 3.05644C42.5161 4.37741 43.1039 6.37639 43.1039 9.07117C43.1039 11.7219 42.5218 13.8442 41.3576 15.4382C40.1908 17.0321 38.1554 17.8276 35.2514 17.8247H31.6635V18.7406H36.1379C39.4455 18.7406 41.8611 19.4744 43.3847 20.9421C44.9113 22.4128 45.6658 24.5527 45.6658 27.362C45.6658 33.6054 42.367 36.7404 35.7694 36.7671H35.8396L36.1378 37.9648L35.9798 37.956L36.129 37.9648C37.024 37.9824 37.6994 38 38.1557 38C40.7877 38 43.0688 37.5597 44.999 36.679C46.9291 35.7984 48.4206 34.5743 49.4471 32.9981C50.4823 31.4218 50.9999 29.6223 50.9999 27.5998C51.0088 25.1515 50.1665 23.0556 48.4996 21.3207ZM31.9968 35.2964C32.1047 35.6045 32.2925 35.8782 32.5408 36.0893C32.2979 35.8734 32.1112 35.6012 31.9968 35.2964ZM31.9968 35.2964C32.1047 35.6045 32.2925 35.8782 32.5408 36.0893C32.2979 35.8734 32.1112 35.6012 31.9968 35.2964Z" fill="white"/>
<path d="M36.1291 37.9641L35.9799 37.9554H35.936C34.3568 37.9025 32.102 37.8409 29.1454 37.8409C26.294 37.8409 24.0305 37.8937 22.3548 37.9994V36.925C23.6445 36.8721 24.5745 36.7312 25.1623 36.5023C25.4438 36.3962 25.698 36.2279 25.9061 36.0099C26.1141 35.792 26.2707 35.5299 26.3642 35.243C26.5836 34.6353 26.6886 33.6578 26.6886 32.3105V18.7311H9.3001L9.3001 32.3106C9.3001 33.658 9.40538 34.6355 9.62441 35.2431C9.71656 35.5308 9.87265 35.7936 10.0809 36.0118C10.2891 36.2299 10.544 36.3977 10.8264 36.5024C11.4142 36.7314 12.3441 36.8723 13.6339 36.9251V37.9995C11.9933 37.8938 9.72971 37.8409 6.84325 37.8409C3.78133 37.8409 1.50025 37.8938 0 37.9995L0 36.925C1.28967 36.8721 2.21969 36.7312 2.80752 36.5023C3.08985 36.3975 3.34476 36.2297 3.55299 36.0116C3.76122 35.7934 3.91731 35.5306 4.00946 35.243C4.22882 34.6353 4.33377 33.6578 4.33377 31.6941L4.33377 5.07246C4.33377 4.34153 4.22849 3.36403 4.00946 2.74762C3.91889 2.46162 3.7643 2.20022 3.55753 1.98346C3.35077 1.7667 3.09731 1.60033 2.81658 1.49709C2.22892 1.26814 1.29882 1.12682 0.00914718 1.07441L0.00914718 0C1.49182 0.105727 3.77291 0.15859 6.8524 0.15859C9.73886 0.15859 12.0024 0.105727 13.643 0V1.07441C12.3533 1.12724 11.4233 1.26814 10.8355 1.49709C10.554 1.6032 10.2998 1.77146 10.0917 1.98942C9.8837 2.20739 9.72711 2.4695 9.63356 2.75638C9.41419 3.37279 9.30019 4.35063 9.30019 5.68888V17.7888H26.6802V5.68888C26.6802 4.34153 26.5749 3.36403 26.3558 2.75638C26.261 2.47021 26.1039 2.20879 25.896 1.991C25.6882 1.77322 25.4347 1.60451 25.1539 1.49709C24.5661 1.26814 23.6361 1.12724 22.3464 1.07441V0C24.0133 0.105727 26.2769 0.15859 29.137 0.15859C32.1989 0.15859 34.3659 0.0881427 35.9803 0.0616832V1.07441C34.6906 1.12724 33.7606 1.26814 33.1727 1.49709C32.8912 1.60317 32.6369 1.77141 32.4288 1.98938C32.2208 2.20735 32.0641 2.46948 31.9705 2.75638C31.7512 3.37279 31.6462 4.35063 31.6462 5.68888V32.3106C31.6462 33.658 31.7515 34.6355 31.9705 35.2431C31.9794 35.2608 31.9794 35.2784 31.9881 35.296C32.096 35.6041 32.2837 35.8778 32.532 36.0889C32.5473 36.1062 32.565 36.121 32.5847 36.133C32.7344 36.2567 32.9034 36.3548 33.0848 36.4236C33.462 36.5822 33.9797 36.6791 34.6289 36.7319L34.7605 36.7407L34.9009 36.7495H34.9097C34.9712 36.7495 35.0238 36.7583 35.0852 36.7583C35.1729 36.7583 35.2694 36.7671 35.3659 36.7671H35.8046L36.1291 37.9641Z" fill="white"/>
</svg>
